<svg width="267" height="268" viewBox="0 0 267 268" fill="none" xmlns="http://www.w3.org/2000/svg">
<path d="M19.936 195.707C16.02 204.251 28.836 220.033 39.6347 220.033C41.296 220.033 42.72 220.389 42.72 220.983C42.72 223.237 33.2267 235.579 26.2253 242.58C21.36 247.327 20.1733 248.869 23.2587 246.496C29.7853 241.275 37.1427 233.205 42.008 225.611C45.8053 219.677 46.5173 219.203 53.044 217.779C60.9947 215.999 77.3707 209.828 86.508 205.2C92.204 202.352 92.6787 201.877 91.9667 198.911C91.492 197.131 91.0173 195.588 90.78 195.351C90.6613 195.113 87.1013 197.368 82.948 200.216C73.5733 206.743 63.1307 212.083 54.7053 214.575C51.1453 215.643 48.06 216.473 47.8227 216.473C47.5853 216.473 47.4667 215.287 47.4667 213.744C47.4667 208.285 39.9907 198.555 32.9893 194.995C26.5813 191.791 21.5973 192.028 19.936 195.707ZM36.9053 200.691C44.3813 207.455 47.5853 215.643 43.3133 217.185C35.956 220.033 21.36 205.2 24.92 198.673C26.9373 194.995 31.4467 195.825 36.9053 200.691Z" fill="#FF1887"/>
<path d="M139.433 15.3333C79.744 28.3867 29.192 93.2973 29.7853 156.191C29.904 172.567 31.2093 178.975 32.2773 168.651C33.464 158.445 39.0413 147.647 47.5853 139.103C53.6373 133.051 55.18 130.559 57.1973 124.032C62.1813 107.656 71.556 90.924 83.4227 77.2773C89.9493 69.6827 105.139 57.104 112.971 52.832C118.904 49.5093 118.192 50.34 108.936 57.3413C94.5773 68.0213 81.6427 84.3973 73.5733 101.841C69.5387 110.385 64.792 124.981 65.7413 125.931C65.9787 126.168 68.352 125.456 71.2 124.507C73.9293 123.557 77.964 122.727 80.1 122.727C83.66 122.727 84.1347 122.133 88.288 113.708C91.136 108.012 95.408 102.079 99.9173 97.4507C105.376 91.8733 106.207 91.28 103.359 95.0773C99.0867 100.773 92.916 113.352 91.848 118.692C91.136 122.371 91.136 122.371 97.3067 123.201C115.463 125.575 134.212 142.069 140.501 161.056C141.095 163.073 141.925 162.717 147.147 158.327C166.727 141.951 186.188 112.759 192.952 89.856C194.139 86.0587 195.088 82.1427 195.207 81.1933C195.681 77.5147 197.343 75.0227 200.072 74.0733C203.395 72.768 211.464 58.6467 208.853 58.6467C208.379 58.6467 207.192 60.5453 206.48 62.8C205.293 66.4787 198.292 72.8867 195.563 72.8867C195.088 72.8867 196.868 69.6827 199.597 65.7667C203.869 59.3587 204.344 58.172 203.395 54.8493L202.208 51.052L199.123 56.392C197.461 59.24 194.613 62.444 192.952 63.2747C191.291 64.224 189.392 66.4787 188.68 68.496C188.087 70.5133 186.069 73.9547 184.289 76.328L181.204 80.6L185.595 76.4467L189.867 72.412L189.155 76.4467C188.68 78.7013 187.849 81.5493 187.256 82.8547C186.307 84.516 186.425 84.872 187.612 84.16C189.629 82.8547 188.443 85.7027 183.103 95.4333C177.881 104.927 163.997 118.929 156.284 122.608C140.501 130.203 127.567 124.744 120.921 107.656C117.361 98.2813 117.361 80.0067 120.921 66.36C125.905 47.6107 137.772 27.2 149.045 17.944L154.504 13.5533L150.588 13.672C148.333 13.672 143.349 14.5027 139.433 15.3333ZM194.613 65.7667C194.613 66.36 194.02 66.9533 193.308 66.9533C192.715 66.9533 192.477 66.36 192.833 65.7667C193.189 65.0547 193.783 64.58 194.139 64.58C194.376 64.58 194.613 65.0547 194.613 65.7667ZM193.427 77.1587C191.884 81.0747 191.884 81.5493 193.664 80.4813C194.495 80.0067 194.613 80.1253 194.139 81.0747C193.664 81.7867 192.715 82.1427 192.121 81.7867C191.528 81.312 191.053 81.668 191.053 82.4987C191.053 83.3293 190.816 83.6853 190.46 83.3293C189.748 82.736 193.071 74.0733 194.02 74.0733C194.257 74.0733 194.02 75.4973 193.427 77.1587Z" fill="#FF1887"/>
<path d="M143.98 33.2531C90.3128 45.0088 44.8612 103.467 45.3947 160.108C45.5014 174.856 46.675 180.627 47.6352 171.329C48.7022 162.139 53.7168 152.413 61.3988 144.719C66.8402 139.268 68.2272 137.024 70.041 131.146C74.5221 116.398 82.9509 101.329 93.6203 89.0393C99.4885 82.1997 113.145 70.8714 120.187 67.0241C125.522 64.0317 124.882 64.7798 116.56 71.0852C103.65 80.7035 92.0199 95.4516 84.7647 111.161C81.1371 118.856 76.8694 132.001 77.7229 132.856C77.9363 133.07 80.0702 132.429 82.6309 131.574C85.0848 130.719 88.7124 129.971 90.6329 129.971C93.8337 129.971 94.2605 129.436 97.9948 121.848C100.555 116.719 104.396 111.375 108.451 107.207C113.359 102.184 114.106 101.65 111.545 105.07C107.704 110.2 102.156 121.528 101.196 126.337C100.555 129.65 100.555 129.65 106.104 130.398C122.428 132.536 134.52 120.016 140.175 137.115C142.767 125.473 140.952 137.592 145.647 133.638C155.305 131.574 152.635 127.646 148.386 138.005C149.453 134.585 149.532 131.417 149.639 130.562C150.066 127.249 147.185 132.001 149.639 131.146C139.635 135.955 148.783 128.234 146.436 128.234C146.009 128.234 147.411 126.818 146.771 128.848C145.704 132.161 151.33 133.638 148.876 133.638C146.072 126.157 146.422 137.164 148.876 133.638C152.717 127.867 145.069 134.566 144.215 131.574L144.773 132.856L148.386 128.234C146.892 130.799 147.141 134.105 145.647 134.853C144.153 135.708 145.134 130.398 144.494 132.215C143.961 134.032 147.272 132.198 149.639 133.638L146.471 131.574L146.946 132.501L147.212 129.971L144.215 132.856C143.789 134.887 149.409 125.669 148.876 126.845C148.022 128.341 150.009 131.851 149.582 132.493C148.607 121.829 142.078 128.552 147.053 131.094C140.281 127.317 150.211 151.33 151.745 144.235C166.446 119.201 132.8 134.259 126.825 118.87C123.624 110.427 124.135 91.4974 127.336 79.2073C131.817 62.3218 142.486 43.9401 152.622 35.6043L157.53 31.6501L154.009 31.7569C151.982 31.7569 147.501 32.505 143.98 33.2531ZM151.3 128.848C151.3 129.383 148.108 128.848 147.468 128.848C146.935 128.848 146.451 129.383 146.771 128.848C147.091 128.207 146.708 129.971 147.028 129.971C147.242 129.971 144.598 143.917 151.3 128.848ZM145.647 133.638C144.26 137.164 145.868 129.81 147.468 128.848C148.215 128.421 150.009 131.638 149.582 132.493C145.593 118.706 145.306 133.177 144.773 132.856C144.239 132.429 146.592 132.89 146.592 133.638C146.592 134.386 149.56 133.177 149.24 132.856C148.599 132.322 147.679 132.856 148.532 132.856C148.746 132.856 146.18 132.141 145.647 133.638Z" fill="#FF1887" fill-opacity="0.34"/>
<g clip-path="url(#clip0_1_24)">
<path d="M49.6638 191.761V173.943H57.1636C59.0618 173.943 60.7313 174.316 62.1719 175.063C63.6295 175.81 64.7565 176.853 65.5531 178.194C66.3666 179.535 66.7734 181.087 66.7734 182.852C66.7734 184.617 66.3666 186.17 65.5531 187.51C64.7565 188.851 63.6295 189.894 62.1719 190.641C60.7313 191.388 59.0618 191.761 57.1636 191.761H49.6638ZM52.2061 189.546H57.011C58.4856 189.546 59.7567 189.266 60.8245 188.706C61.9091 188.146 62.7481 187.366 63.3413 186.365C63.9346 185.347 64.2311 184.176 64.2311 182.852C64.2311 181.511 63.9346 180.341 63.3413 179.339C62.7481 178.338 61.9091 177.558 60.8245 176.998C59.7567 176.438 58.4856 176.158 57.011 176.158H52.2061V189.546ZM71.9387 191.761V173.943H78.8791C80.4383 173.943 81.7688 174.189 82.8705 174.681C83.9721 175.173 84.8195 175.886 85.4128 176.819C86.0059 177.753 86.3026 178.864 86.3026 180.154C86.3026 181.444 86.0059 182.555 85.4128 183.488C84.8195 184.405 83.9721 185.109 82.8705 185.601C81.7688 186.093 80.4383 186.339 78.8791 186.339H73.3369L74.4809 185.168V191.761H71.9387ZM83.8366 191.761L79.3113 185.296H82.0315L86.6076 191.761H83.8366ZM74.4809 185.423L73.3369 184.176H78.8028C80.4299 184.176 81.6586 183.828 82.4891 183.132C83.3365 182.419 83.7603 181.427 83.7603 180.154C83.7603 178.881 83.3365 177.897 82.4891 177.201C81.6586 176.505 80.4299 176.158 78.8028 176.158H73.3369L74.4809 174.885V185.423ZM88.9862 191.761L97.0453 173.943H99.5622L107.647 191.761H104.977L97.7826 175.369H98.7995L91.6048 191.761H88.9862ZM92.4183 187.306L93.1048 185.27H103.121L103.859 187.306H92.4183ZM119.358 191.965C117.985 191.965 116.722 191.744 115.57 191.303C114.417 190.845 113.417 190.208 112.57 189.394C111.722 188.562 111.062 187.595 110.587 186.492C110.112 185.389 109.875 184.176 109.875 182.852C109.875 181.528 110.112 180.315 110.587 179.212C111.062 178.109 111.722 177.15 112.57 176.336C113.434 175.504 114.443 174.868 115.595 174.427C116.748 173.969 118.019 173.74 119.409 173.74C120.815 173.74 122.104 173.969 123.273 174.427C124.442 174.885 125.434 175.572 126.247 176.489L124.671 178.067C123.942 177.354 123.146 176.836 122.281 176.514C121.434 176.175 120.51 176.005 119.51 176.005C118.493 176.005 117.544 176.175 116.663 176.514C115.799 176.853 115.044 177.329 114.4 177.939C113.773 178.55 113.282 179.28 112.926 180.128C112.587 180.96 112.417 181.868 112.417 182.852C112.417 183.819 112.587 184.727 112.926 185.576C113.282 186.407 113.773 187.137 114.4 187.765C115.044 188.376 115.799 188.851 116.663 189.19C117.527 189.53 118.468 189.699 119.485 189.699C120.434 189.699 121.341 189.555 122.205 189.266C123.087 188.961 123.9 188.46 124.646 187.765L126.095 189.699C125.214 190.446 124.18 191.014 122.993 191.405C121.824 191.778 120.612 191.965 119.358 191.965ZM123.654 189.368V182.75H126.095V189.699L123.654 189.368ZM140.267 191.965C138.911 191.965 137.649 191.735 136.479 191.277C135.327 190.819 134.327 190.183 133.479 189.368C132.632 188.537 131.971 187.57 131.496 186.467C131.022 185.363 130.784 184.159 130.784 182.852C130.784 181.545 131.022 180.341 131.496 179.238C131.971 178.135 132.632 177.176 133.479 176.361C134.327 175.53 135.327 174.885 136.479 174.427C137.632 173.969 138.894 173.74 140.267 173.74C141.623 173.74 142.869 173.969 144.004 174.427C145.157 174.868 146.157 175.504 147.004 176.336C147.868 177.15 148.529 178.109 148.987 179.212C149.461 180.315 149.699 181.528 149.699 182.852C149.699 184.176 149.461 185.389 148.987 186.492C148.529 187.595 147.868 188.562 147.004 189.394C146.157 190.208 145.157 190.845 144.004 191.303C142.869 191.744 141.623 191.965 140.267 191.965ZM140.267 189.699C141.25 189.699 142.157 189.53 142.987 189.19C143.835 188.851 144.564 188.376 145.174 187.765C145.801 187.137 146.284 186.407 146.623 185.576C146.979 184.744 147.157 183.836 147.157 182.852C147.157 181.868 146.979 180.96 146.623 180.128C146.284 179.297 145.801 178.576 145.174 177.965C144.564 177.337 143.835 176.853 142.987 176.514C142.157 176.175 141.25 176.005 140.267 176.005C139.267 176.005 138.343 176.175 137.496 176.514C136.666 176.853 135.937 177.337 135.31 177.965C134.683 178.576 134.191 179.297 133.835 180.128C133.496 180.96 133.327 181.868 133.327 182.852C133.327 183.836 133.496 184.744 133.835 185.576C134.191 186.407 134.683 187.137 135.31 187.765C135.937 188.376 136.666 188.851 137.496 189.19C138.343 189.53 139.267 189.699 140.267 189.699ZM154.856 191.761V173.943H156.94L168.711 188.579H167.618V173.943H170.16V191.761H168.076L156.305 177.125H157.398V191.761H154.856Z" fill="black"/>
<path d="M192.956 191.761V173.943H200.939C202.989 173.943 204.565 174.359 205.667 175.19C206.768 176.005 207.32 177.125 207.32 178.55C207.32 179.518 207.099 180.332 206.659 180.994C206.234 181.656 205.659 182.165 204.93 182.521C204.201 182.877 203.412 183.056 202.566 183.056L203.023 182.292C204.04 182.292 204.938 182.47 205.718 182.827C206.497 183.183 207.116 183.709 207.574 184.405C208.032 185.083 208.26 185.932 208.26 186.95C208.26 188.477 207.684 189.665 206.532 190.514C205.395 191.345 203.701 191.761 201.447 191.761H192.956ZM195.498 189.699H201.345C202.752 189.699 203.828 189.462 204.574 188.986C205.319 188.511 205.693 187.765 205.693 186.746C205.693 185.711 205.319 184.956 204.574 184.481C203.828 184.006 202.752 183.768 201.345 183.768H195.269V181.707H200.71C201.998 181.707 202.998 181.469 203.71 180.994C204.422 180.519 204.778 179.806 204.778 178.856C204.778 177.905 204.422 177.193 203.71 176.718C202.998 176.242 201.998 176.005 200.71 176.005H195.498V189.699ZM221.501 191.965C220.146 191.965 218.882 191.735 217.713 191.277C216.561 190.819 215.561 190.183 214.713 189.368C213.866 188.537 213.205 187.57 212.73 186.467C212.256 185.363 212.018 184.159 212.018 182.852C212.018 181.545 212.256 180.341 212.73 179.238C213.205 178.135 213.866 177.176 214.713 176.361C215.561 175.53 216.561 174.885 217.713 174.427C218.866 173.969 220.128 173.74 221.501 173.74C222.857 173.74 224.103 173.969 225.238 174.427C226.391 174.868 227.391 175.504 228.238 176.336C229.102 177.15 229.763 178.109 230.221 179.212C230.696 180.315 230.933 181.528 230.933 182.852C230.933 184.176 230.696 185.389 230.221 186.492C229.763 187.595 229.102 188.562 228.238 189.394C227.391 190.208 226.391 190.845 225.238 191.303C224.103 191.744 222.857 191.965 221.501 191.965ZM221.501 189.699C222.485 189.699 223.391 189.53 224.221 189.19C225.069 188.851 225.797 188.376 226.407 187.765C227.035 187.137 227.518 186.407 227.857 185.576C228.213 184.744 228.39 183.836 228.39 182.852C228.39 181.868 228.213 180.96 227.857 180.128C227.518 179.297 227.035 178.576 226.407 177.965C225.797 177.337 225.069 176.853 224.221 176.514C223.391 176.175 222.485 176.005 221.501 176.005C220.502 176.005 219.578 176.175 218.73 176.514C217.9 176.853 217.171 177.337 216.543 177.965C215.917 178.576 215.425 179.297 215.069 180.128C214.731 180.96 214.56 181.868 214.56 182.852C214.56 183.836 214.731 184.744 215.069 185.576C215.425 186.407 215.917 187.137 216.543 187.765C217.171 188.376 217.9 188.851 218.73 189.19C219.578 189.53 220.502 189.699 221.501 189.699ZM233.147 191.761L241.206 173.943H243.722L251.807 191.761H249.137L241.943 175.369H242.96L235.765 191.761H233.147ZM236.579 187.306L237.265 185.27H247.282L248.019 187.306H236.579ZM258.373 191.761V176.158H252.271V173.943H266.991V176.158H260.89V191.761H258.373Z" fill="#FF1887"/>
</g>
<path d="M93.2399 219.303V207.802H94.5519L99.5756 216.493H98.8716L103.831 207.802H105.143L105.159 219.303H103.623L103.607 210.283H103.975L99.5596 217.907H98.8236L94.3759 210.283H94.7758V219.303H93.2399ZM107.464 219.303L112.536 207.802H114.12L119.208 219.303H117.528L113 208.722H113.64L109.112 219.303H107.464ZM109.624 216.428L110.056 215.113H116.36L116.824 216.428H109.624ZM121.518 219.303V207.802H125.886C126.867 207.802 127.705 207.96 128.398 208.278C129.091 208.596 129.624 209.056 129.998 209.658C130.371 210.261 130.558 210.978 130.558 211.811C130.558 212.643 130.371 213.361 129.998 213.963C129.624 214.555 129.091 215.009 128.398 215.327C127.705 215.645 126.867 215.803 125.886 215.803H122.398L123.118 215.048V219.303H121.518ZM129.006 219.303L126.158 215.13H127.87L130.75 219.303H129.006ZM123.118 215.212L122.398 214.407H125.838C126.862 214.407 127.635 214.182 128.158 213.733C128.691 213.273 128.958 212.632 128.958 211.811C128.958 210.989 128.691 210.354 128.158 209.905C127.635 209.456 126.862 209.231 125.838 209.231H122.398L123.118 208.41V215.212ZM133.783 219.303V207.802H135.382V219.303H133.783ZM139.375 219.303V207.802H140.687L148.095 217.249H147.407V207.802H149.007V219.303H147.695L140.287 209.855H140.975V219.303H139.375ZM151.303 219.303L156.375 207.802H157.959L163.046 219.303H161.366L156.839 208.722H157.479L152.951 219.303H151.303ZM153.463 216.428L153.895 215.113H160.198L160.662 216.428H153.463ZM178.462 219.303L173.534 207.802H175.262L179.79 218.416H178.798L183.358 207.802H184.958L180.046 219.303H178.462ZM184.97 219.303L190.042 207.802H191.626L196.714 219.303H195.034L190.506 208.722H191.146L186.618 219.303H184.97ZM187.13 216.428L187.562 215.113H193.866L194.33 216.428H187.13ZM199.025 219.303V207.802H200.625V217.874H206.688V219.303H199.025ZM210.62 212.764H216.38V214.16H210.62V212.764ZM210.764 217.874H217.292V219.303H209.164V207.802H217.068V209.231H210.764V217.874ZM220.521 219.303V207.802H221.833L229.241 217.249H228.553V207.802H230.153V219.303H228.841L221.433 209.855H222.121V219.303H220.521ZM239.153 219.435C238.299 219.435 237.51 219.292 236.785 219.007C236.071 218.712 235.447 218.301 234.914 217.775C234.391 217.238 233.98 216.614 233.682 215.902C233.383 215.19 233.234 214.407 233.234 213.552C233.234 212.698 233.383 211.915 233.682 211.203C233.98 210.491 234.396 209.872 234.93 209.346C235.463 208.809 236.087 208.399 236.801 208.114C237.526 207.818 238.315 207.67 239.169 207.67C240.033 207.67 240.827 207.824 241.553 208.13C242.289 208.426 242.913 208.87 243.425 209.461L242.385 210.496C241.958 210.036 241.478 209.697 240.945 209.478C240.411 209.248 239.841 209.133 239.233 209.133C238.603 209.133 238.017 209.242 237.473 209.461C236.939 209.68 236.475 209.987 236.082 210.381C235.687 210.776 235.378 211.247 235.154 211.794C234.94 212.331 234.834 212.917 234.834 213.552C234.834 214.188 234.94 214.779 235.154 215.327C235.378 215.864 235.687 216.329 236.082 216.724C236.475 217.118 236.939 217.425 237.473 217.644C238.017 217.863 238.603 217.972 239.233 217.972C239.841 217.972 240.411 217.863 240.945 217.644C241.478 217.414 241.958 217.063 242.385 216.592L243.425 217.627C242.913 218.219 242.289 218.668 241.553 218.975C240.827 219.281 240.027 219.435 239.153 219.435ZM246.347 219.303V207.802H247.947V219.303H246.347ZM250.244 219.303L255.315 207.802H256.899L261.987 219.303H260.307L255.779 208.722H256.419L251.892 219.303H250.244ZM252.404 216.428L252.836 215.113H259.139L259.603 216.428H252.404Z" fill="#9E9E9E"/>
<defs>
<clipPath id="clip0_1_24">
<rect width="218.05" height="19.58" fill="white" transform="translate(48.95 173.16)"/>
</clipPath>
</defs>
</svg>
